<svg version="1.1" viewBox="0.0 0.0 600.0 371.0" fill="none" stroke="none" stroke-linecap="square" stroke-miterlimit="10" width="600" height="371" xmlns:xlink="http://www.w3.org/1999/xlink" xmlns="http://www.w3.org/2000/svg"><path fill="#ffffff" d="M0 0L600.0 0L600.0 371.0L0 371.0L0 0Z" fill-rule="nonzero"/><path stroke="#333333" stroke-width="1.0" stroke-linecap="butt" d="M45.5 302.5L581.5 302.5" fill-rule="nonzero"/><path stroke="#cccccc" stroke-width="1.0" stroke-linecap="butt" d="M45.5 210.5L581.5 210.5" fill-rule="nonzero"/><path stroke="#cccccc" stroke-width="1.0" stroke-linecap="butt" d="M45.5 118.5L581.5 118.5" fill-rule="nonzero"/><path stroke="#cccccc" stroke-width="1.0" stroke-linecap="butt" d="M45.5 26.5L581.5 26.5" fill-rule="nonzero"/><clipPath id="id_0"><path d="M45.55 26.05L581.45 26.05L581.45 302.96292L45.55 302.96292L45.55 26.05Z" clip-rule="nonzero"/></clipPath><path stroke="#4285f4" stroke-width="2.0" stroke-linecap="butt" clip-path="url(#id_0)" d="M64.689285 217.11992L102.96786 266.0412L141.24643 259.5799L179.525 264.19513L217.80357 261.426L256.08215 228.19644L294.36072 212.50471L332.63928 193.1208L370.91785 132.19995L409.19644 120.20039L447.475 50.972164L485.75357 52.81825L524.03217 42.664776L562.3107 48.203033" fill-rule="nonzero"/><path fill="#000000" fill-opacity="0.0" clip-path="url(#id_0)" d="M67.689285 217.11992C67.689285 218.77678 66.34614 220.11992 64.689285 220.11992C63.032433 220.11992 61.689285 218.77678 61.689285 217.11992C61.689285 215.46307 63.032433 214.11992 64.689285 214.11992C66.34614 214.11992 67.689285 215.46307 67.689285 217.11992Z" fill-rule="nonzero"/><path fill="#000000" fill-opacity="0.0" clip-path="url(#id_0)" d="M105.96786 266.0412C105.96786 267.69806 104.62471 269.0412 102.96786 269.0412C101.311005 269.0412 99.96786 267.69806 99.96786 266.0412C99.96786 264.38437 101.311005 263.0412 102.96786 263.0412C104.62471 263.0412 105.96786 264.38437 105.96786 266.0412Z" fill-rule="nonzero"/><path fill="#000000" fill-opacity="0.0" clip-path="url(#id_0)" d="M144.24643 259.5799C144.24643 261.23676 142.90329 262.5799 141.24643 262.5799C139.58957 262.5799 138.24643 261.23676 138.24643 259.5799C138.24643 257.92307 139.58957 256.5799 141.24643 256.5799C142.90329 256.5799 144.24643 257.92307 144.24643 259.5799Z" fill-rule="nonzero"/><path fill="#000000" fill-opacity="0.0" clip-path="url(#id_0)" d="M182.525 264.19513C182.525 265.852 181.18185 267.19513 179.525 267.19513C177.86815 267.19513 176.525 265.852 176.525 264.19513C176.525 262.53827 177.86815 261.19513 179.525 261.19513C181.18185 261.19513 182.525 262.53827 182.525 264.19513Z" fill-rule="nonzero"/><path fill="#000000" fill-opacity="0.0" clip-path="url(#id_0)" d="M220.80357 261.426C220.80357 263.08286 219.46042 264.426 217.80357 264.426C216.14671 264.426 214.80357 263.08286 214.80357 261.426C214.80357 259.76913 216.14671 258.426 217.80357 258.426C219.46042 258.426 220.80357 259.76913 220.80357 261.426Z" fill-rule="nonzero"/><path fill="#000000" fill-opacity="0.0" clip-path="url(#id_0)" d="M259.08215 228.19644C259.08215 229.8533 257.73898 231.19644 256.08215 231.19644C254.4253 231.19644 253.08214 229.8533 253.08214 228.19644C253.08214 226.53958 254.4253 225.19644 256.08215 225.19644C257.73898 225.19644 259.08215 226.53958 259.08215 228.19644Z" fill-rule="nonzero"/><path fill="#000000" fill-opacity="0.0" clip-path="url(#id_0)" d="M297.36072 212.50471C297.36072 214.16156 296.01758 215.50471 294.36072 215.50471C292.70386 215.50471 291.36072 214.16156 291.36072 212.50471C291.36072 210.84785 292.70386 209.50471 294.36072 209.50471C296.01758 209.50471 297.36072 210.84785 297.36072 212.50471Z" fill-rule="nonzero"/><path fill="#000000" fill-opacity="0.0" clip-path="url(#id_0)" d="M335.63928 193.1208C335.63928 194.77766 334.29614 196.1208 332.63928 196.1208C330.98242 196.1208 329.63928 194.77766 329.63928 193.1208C329.63928 191.46394 330.98242 190.1208 332.63928 190.1208C334.29614 190.1208 335.63928 191.46394 335.63928 193.1208Z" fill-rule="nonzero"/><path fill="#000000" fill-opacity="0.0" clip-path="url(#id_0)" d="M373.91785 132.19995C373.91785 133.85681 372.5747 135.19995 370.91785 135.19995C369.26102 135.19995 367.91785 133.85681 367.91785 132.19995C367.91785 130.5431 369.26102 129.19995 370.91785 129.19995C372.5747 129.19995 373.91785 130.5431 373.91785 132.19995Z" fill-rule="nonzero"/><path fill="#000000" fill-opacity="0.0" clip-path="url(#id_0)" d="M412.19644 120.20039C412.19644 121.857254 410.85327 123.20039 409.19644 123.20039C407.53958 123.20039 406.19644 121.857254 406.19644 120.20039C406.19644 118.54354 407.53958 117.20039 409.19644 117.20039C410.85327 117.20039 412.19644 118.54354 412.19644 120.20039Z" fill-rule="nonzero"/><path fill="#000000" fill-opacity="0.0" clip-path="url(#id_0)" d="M450.475 50.972164C450.475 52.629017 449.13187 53.972164 447.475 53.972164C445.81815 53.972164 444.475 52.629017 444.475 50.972164C444.475 49.31531 445.81815 47.972164 447.475 47.972164C449.13187 47.972164 450.475 49.31531 450.475 50.972164Z" fill-rule="nonzero"/><path fill="#000000" fill-opacity="0.0" clip-path="url(#id_0)" d="M488.75357 52.81825C488.75357 54.475105 487.41043 55.81825 485.75357 55.81825C484.0967 55.81825 482.75357 54.475105 482.75357 52.81825C482.75357 51.161396 484.0967 49.81825 485.75357 49.81825C487.41043 49.81825 488.75357 51.161396 488.75357 52.81825Z" fill-rule="nonzero"/><path fill="#000000" fill-opacity="0.0" clip-path="url(#id_0)" d="M527.03217 42.664776C527.03217 44.32163 525.689 45.664776 524.03217 45.664776C522.3753 45.664776 521.03217 44.32163 521.03217 42.664776C521.03217 41.007923 522.3753 39.664776 524.03217 39.664776C525.689 39.664776 527.03217 41.007923 527.03217 42.664776Z" fill-rule="nonzero"/><path fill="#000000" fill-opacity="0.0" clip-path="url(#id_0)" d="M565.3107 48.203033C565.3107 49.85989 563.9676 51.203033 562.3107 51.203033C560.6539 51.203033 559.3107 49.85989 559.3107 48.203033C559.3107 46.54618 560.6539 45.203033 562.3107 45.203033C563.9676 45.203033 565.3107 46.54618 565.3107 48.203033Z" fill-rule="nonzero"/><path fill="#757575" d="M38.6125 303.8223Q38.6125 305.72855 37.95625 306.66605Q37.315624 307.58792 35.925 307.58792Q34.565624 307.58792 33.909374 306.68167Q33.253124 305.77542 33.221874 303.96292L33.221874 302.52542Q33.221874 300.6348 33.8625 299.72855Q34.51875 298.80667 35.909374 298.80667Q37.284374 298.80667 37.940624 299.6973Q38.596874 300.5723 38.6125 302.41605L38.6125 303.8223ZM37.51875 302.33792Q37.51875 300.96292 37.128124 300.33792Q36.753124 299.6973 35.909374 299.6973Q35.08125 299.6973 34.690624 300.33792Q34.315624 300.96292 34.315624 302.2598L34.315624 303.99417Q34.315624 305.36917 34.70625 306.04105Q35.1125 306.6973 35.925 306.6973Q36.721874 306.6973 37.1125 306.0723Q37.503124 305.4473 37.51875 304.11917L37.51875 302.33792Z" fill-rule="nonzero"/><path fill="#757575" d="M22.815624 215.15862L21.7375 215.15862L21.7375 207.93987L19.55 208.73674L19.55 207.75237L22.659374 206.58049L22.815624 206.58049L22.815624 215.15862ZM31.6125 211.51799Q31.6125 213.42424 30.95625 214.36174Q30.315624 215.28362 28.925 215.28362Q27.565624 215.28362 26.909374 214.37737Q26.253124 213.47112 26.221874 211.65862L26.221874 210.22112Q26.221874 208.33049 26.8625 207.42424Q27.51875 206.50237 28.909374 206.50237Q30.284374 206.50237 30.940624 207.39299Q31.596874 208.26799 31.6125 210.11174L31.6125 211.51799ZM30.51875 210.03362Q30.51875 208.65862 30.128124 208.03362Q29.753124 207.39299 28.909374 207.39299Q28.08125 207.39299 27.690624 208.03362Q27.315624 208.65862 27.315624 209.95549L27.315624 211.68987Q27.315624 213.06487 27.70625 213.73674Q28.1125 214.39299 28.925 214.39299Q29.721874 214.39299 30.1125 213.76799Q30.503124 213.14299 30.51875 211.81487L30.51875 210.03362ZM38.6125 211.51799Q38.6125 213.42424 37.95625 214.36174Q37.315624 215.28362 35.925 215.28362Q34.565624 215.28362 33.909374 214.37737Q33.253124 213.47112 33.221874 211.65862L33.221874 210.22112Q33.221874 208.33049 33.8625 207.42424Q34.51875 206.50237 35.909374 206.50237Q37.284374 206.50237 37.940624 207.39299Q38.596874 208.26799 38.6125 210.11174L38.6125 211.51799ZM37.51875 210.03362Q37.51875 208.65862 37.128124 208.03362Q36.753124 207.39299 35.909374 207.39299Q35.08125 207.39299 34.690624 208.03362Q34.315624 208.65862 34.315624 209.95549L34.315624 211.68987Q34.315624 213.06487 34.70625 213.73674Q35.1125 214.39299 35.925 214.39299Q36.721874 214.39299 37.1125 213.76799Q37.503124 213.14299 37.51875 211.81487L37.51875 210.03362Z" fill-rule="nonzero"/><path fill="#757575" d="M24.846874 122.85431L19.253124 122.85431L19.253124 122.07306L22.20625 118.79181Q22.8625 118.04181 23.1125 117.588684Q23.3625 117.119934 23.3625 116.619934Q23.3625 115.94806 22.95625 115.526184Q22.565624 115.088684 21.878124 115.088684Q21.08125 115.088684 20.628124 115.557434Q20.175 116.01056 20.175 116.838684L19.096874 116.838684Q19.096874 115.651184 19.846874 114.932434Q20.6125 114.19806 21.878124 114.19806Q23.08125 114.19806 23.76875 114.82306Q24.45625 115.44806 24.45625 116.494934Q24.45625 117.744934 22.846874 119.494934L20.565624 121.963684L24.846874 121.963684L24.846874 122.85431ZM31.6125 119.213684Q31.6125 121.119934 30.95625 122.057434Q30.315624 122.97931 28.925 122.97931Q27.565624 122.97931 26.909374 122.07306Q26.253124 121.16681 26.221874 119.35431L26.221874 117.91681Q26.221874 116.026184 26.8625 115.119934Q27.51875 114.19806 28.909374 114.19806Q30.284374 114.19806 30.940624 115.088684Q31.596874 115.963684 31.6125 117.807434L31.6125 119.213684ZM30.51875 117.72931Q30.51875 116.35431 30.128124 115.72931Q29.753124 115.088684 28.909374 115.088684Q28.08125 115.088684 27.690624 115.72931Q27.315624 116.35431 27.315624 117.651184L27.315624 119.38556Q27.315624 120.76056 27.70625 121.432434Q28.1125 122.088684 28.925 122.088684Q29.721874 122.088684 30.1125 121.463684Q30.503124 120.838684 30.51875 119.51056L30.51875 117.72931ZM38.6125 119.213684Q38.6125 121.119934 37.95625 122.057434Q37.315624 122.97931 35.925 122.97931Q34.565624 122.97931 33.909374 122.07306Q33.253124 121.16681 33.221874 119.35431L33.221874 117.91681Q33.221874 116.026184 33.8625 115.119934Q34.51875 114.19806 35.909374 114.19806Q37.284374 114.19806 37.940624 115.088684Q38.596874 115.963684 38.6125 117.807434L38.6125 119.213684ZM37.51875 117.72931Q37.51875 116.35431 37.128124 115.72931Q36.753124 115.088684 35.909374 115.088684Q35.08125 115.088684 34.690624 115.72931Q34.315624 116.35431 34.315624 117.651184L34.315624 119.38556Q34.315624 120.76056 34.70625 121.432434Q35.1125 122.088684 35.925 122.088684Q36.721874 122.088684 37.1125 121.463684Q37.503124 120.838684 37.51875 119.51056L37.51875 117.72931Z" fill-rule="nonzero"/><path fill="#757575" d="M20.83125 25.753124L21.64375 25.753124Q22.425 25.7375 22.8625 25.346874Q23.3 24.95625 23.3 24.284374Q23.3 22.784374 21.8 22.784374Q21.096874 22.784374 20.675 23.190624Q20.26875 23.596874 20.26875 24.253124L19.175 24.253124Q19.175 23.2375 19.909374 22.565624Q20.659374 21.89375 21.8 21.89375Q23.003124 21.89375 23.690624 22.534374Q24.378124 23.175 24.378124 24.315624Q24.378124 24.878124 24.01875 25.39375Q23.659374 25.909374 23.034374 26.175Q23.7375 26.39375 24.1125 26.909374Q24.503124 27.425 24.503124 28.175Q24.503124 29.315624 23.753124 30.003124Q23.003124 30.675 21.8 30.675Q20.6125 30.675 19.846874 30.01875Q19.096874 29.3625 19.096874 28.3L20.190624 28.3Q20.190624 28.971874 20.628124 29.378124Q21.065624 29.784374 21.815624 29.784374Q22.596874 29.784374 23.003124 29.378124Q23.425 28.95625 23.425 28.190624Q23.425 27.45625 22.971874 27.065624Q22.51875 26.659374 21.64375 26.64375L20.83125 26.64375L20.83125 25.753124ZM31.6125 26.909374Q31.6125 28.815624 30.95625 29.753124Q30.315624 30.675 28.925 30.675Q27.565624 30.675 26.909374 29.76875Q26.253124 28.8625 26.221874 27.05L26.221874 25.6125Q26.221874 23.721874 26.8625 22.815624Q27.51875 21.89375 28.909374 21.89375Q30.284374 21.89375 30.940624 22.784374Q31.596874 23.659374 31.6125 25.503124L31.6125 26.909374ZM30.51875 25.425Q30.51875 24.05 30.128124 23.425Q29.753124 22.784374 28.909374 22.784374Q28.08125 22.784374 27.690624 23.425Q27.315624 24.05 27.315624 25.346874L27.315624 27.08125Q27.315624 28.45625 27.70625 29.128124Q28.1125 29.784374 28.925 29.784374Q29.721874 29.784374 30.1125 29.159374Q30.503124 28.534374 30.51875 27.20625L30.51875 25.425ZM38.6125 26.909374Q38.6125 28.815624 37.95625 29.753124Q37.315624 30.675 35.925 30.675Q34.565624 30.675 33.909374 29.76875Q33.253124 28.8625 33.221874 27.05L33.221874 25.6125Q33.221874 23.721874 33.8625 22.815624Q34.51875 21.89375 35.909374 21.89375Q37.284374 21.89375 37.940624 22.784374Q38.596874 23.659374 38.6125 25.503124L38.6125 26.909374ZM37.51875 25.425Q37.51875 24.05 37.128124 23.425Q36.753124 22.784374 35.909374 22.784374Q35.08125 22.784374 34.690624 23.425Q34.315624 24.05 34.315624 25.346874L34.315624 27.08125Q34.315624 28.45625 34.70625 29.128124Q35.1125 29.784374 35.925 29.784374Q36.721874 29.784374 37.1125 29.159374Q37.503124 28.534374 37.51875 27.20625L37.51875 25.425Z" fill-rule="nonzero"/><path fill="#757575" d="M39.564907 347.898L37.03479 350.42813L38.051258 352.57153L37.233665 353.38913L33.499256 345.05853L34.195316 344.3625L42.536964 348.08585L41.71937 348.9034L39.564907 347.898ZM36.625996 349.5332L38.681023 347.47815L34.836132 345.6883L36.625996 349.5332ZM41.71937 341.30203Q41.5205 341.4567 41.321625 341.65558Q40.559277 342.41794 40.934925 343.3239L44.116905 346.5059L43.354557 347.26825L38.868847 342.78253L39.6091 342.04227L40.13943 342.5505Q39.91846 341.57825 40.614517 340.88217Q40.83549 340.66122 41.012268 340.5949L41.71937 341.30203ZM43.71916 342.35162Q42.669548 341.30203 42.536964 340.19717Q42.40438 339.09232 43.19988 338.2968Q44.01747 337.47922 45.056034 337.58972L44.591995 337.0594L45.299103 336.35226L49.674324 340.7275Q50.547157 341.60034 50.525063 342.6168Q50.514015 343.64432 49.652225 344.5061Q49.166092 344.99225 48.49213 345.24637Q47.81817 345.5005 47.221546 345.38998L47.15526 344.5282Q48.24906 344.64975 48.967216 343.93158Q49.519646 343.37915 49.508595 342.7494Q49.519646 342.11963 48.94512 341.5451L48.558422 341.1584Q48.63576 342.16382 47.840267 342.95932Q47.05582 343.74374 45.939915 343.60013Q44.812965 343.44543 43.71916 342.35162ZM44.580944 341.66663Q45.332245 342.41794 46.08355 342.5505Q46.8238 342.67206 47.387276 342.10858Q48.10543 341.3904 47.785023 340.385L45.741043 338.341Q44.746674 338.05374 44.039566 338.76086Q43.48714 339.3133 43.597626 340.06458Q43.71916 340.80484 44.580944 341.66663ZM48.635757 337.41293Q47.983894 336.76108 47.70768 335.97662Q47.442516 335.18112 47.63034 334.4409Q47.807117 333.68958 48.39269 333.104Q49.30972 332.18698 50.502964 332.25327Q51.707253 332.3085 52.767914 333.36917L52.82316 333.4244Q53.47502 334.0763 53.740185 334.84967Q54.005352 335.62308 53.839622 336.38544Q53.662846 337.13672 53.055176 337.7444Q52.149197 338.6504 50.944904 338.59512Q49.740612 338.5178 48.691 337.46817L48.635757 337.41293ZM49.508595 336.73898Q50.248844 337.47925 51.044342 337.58972Q51.850883 337.68915 52.425407 337.11462Q53.010983 336.52905 52.900497 335.73355Q52.77896 334.92703 51.95032 334.0984Q51.22112 333.36917 50.414574 333.26974Q49.60803 333.1482 49.022457 333.73376Q48.45898 334.29724 48.55842 335.1038Q48.657856 335.88824 49.508595 336.73898ZM52.314922 329.33646L52.900497 329.87784Q52.77896 328.71774 53.6076 327.8891Q55.032864 326.46384 56.645954 328.05484L59.60696 331.01584L58.833565 331.78925L55.861507 328.81717Q55.386417 328.3421 54.93343 328.33105Q54.491486 328.30893 54.027447 328.77298Q53.6518 329.14862 53.563408 329.63477Q53.48607 330.10986 53.6518 330.58493L56.844826 333.77798L56.082478 334.5403L51.596767 330.05463L52.314922 329.33646ZM63.79436 326.82843Q63.595486 326.76215 63.208786 326.46384Q63.241932 327.55765 62.501682 328.29788Q61.838768 328.96082 61.032223 329.01605Q60.23673 329.06024 59.651157 328.47467Q58.955097 327.77863 59.09873 326.86157Q59.24236 325.94455 60.21463 324.9723L60.954884 324.23203L60.60133 323.87848Q60.203583 323.48074 59.728497 323.4918Q59.25341 323.48074 58.77832 323.9558Q58.369526 324.36462 58.303234 324.85074Q58.225895 325.32584 58.524204 325.62415L57.75081 326.39755Q57.408302 326.05505 57.330963 325.51367Q57.26467 324.96124 57.49669 324.37567Q57.717663 323.77905 58.203796 323.2929Q58.988243 322.50845 59.805836 322.46426Q60.634476 322.40903 61.330536 323.06088L63.396614 325.12695Q64.01533 325.74567 64.534615 325.9556L64.60091 326.02188L63.79436 326.82843ZM61.938206 327.51346Q62.302807 327.14883 62.43539 326.64062Q62.56797 326.1324 62.413292 325.69043L61.49626 324.7734L60.899643 325.37003Q59.485428 326.78424 60.314068 327.61288Q60.66762 327.96643 61.120613 327.9333Q61.562553 327.8891 61.938206 327.51346ZM68.30216 321.43674Q68.39056 322.40903 67.517715 323.28186Q66.79956 324.0 66.00407 323.9558Q65.20857 323.91162 64.39098 323.09402L61.474167 320.17722L62.236515 319.41486L65.13123 322.30957Q66.158745 323.3371 66.98739 322.50845Q67.87127 321.62457 67.49562 320.6744L64.236305 317.41507L65.0097 316.6417L69.49541 321.12738L68.766205 321.8566L68.30216 321.43674ZM66.40182 313.08405L67.48457 314.1668L68.31322 313.33817L68.909836 313.93478L68.08119 314.76343L70.85438 317.53662Q71.13059 317.81284 71.37366 317.83493Q71.61673 317.85703 71.8819 317.59186Q72.01447 317.45926 72.2023 317.18304L72.82102 317.8018Q72.6111 318.18848 72.32384 318.47574Q71.815605 318.98398 71.24108 318.9398Q70.6555 318.88452 70.08098 318.31L67.3078 315.53683L66.490204 316.35443L65.893585 315.75778L66.711174 314.94022L65.62842 313.85745L66.40182 313.08405Z" fill-rule="nonzero"/><path fill="#757575" d="M85.279144 343.62222L79.24664 337.58972L81.22433 335.61203Q82.20765 334.62872 83.102585 334.55136Q83.99751 334.45193 84.79301 335.24744Q85.2239 335.6783 85.312294 336.25284Q85.40068 336.80527 85.157616 337.4019Q85.78738 337.0373 86.450294 337.14777Q87.113205 337.23618 87.64353 337.7665Q88.46113 338.58408 88.39484 339.57846Q88.33959 340.56177 87.37837 341.523L85.279144 343.62222ZM83.25726 340.00934L85.422775 342.17487L86.73756 340.86008Q87.30103 340.2966 87.334175 339.68893Q87.36732 339.08127 86.859085 338.57303Q85.77633 337.4903 84.583084 338.68353L83.25726 340.00934ZM82.61645 339.36853L83.82074 338.16425Q84.34002 337.64496 84.39526 337.08148Q84.45051 336.4959 83.99751 336.0429Q83.50033 335.54575 82.992096 335.61203Q82.47282 335.66727 81.8762 336.2639L80.694 337.44608L82.61645 339.36853ZM87.62144 336.70584Q86.969574 336.054 86.69336 335.26953Q86.42819 334.47403 86.61602 333.73376Q86.79279 332.98248 87.37837 332.3969Q88.295395 331.4799 89.48864 331.54617Q90.69293 331.6014 91.75359 332.66208L91.80884 332.71732Q92.4607 333.36917 92.72586 334.14258Q92.99103 334.916 92.8253 335.6783Q92.64852 336.42963 92.040855 337.0373Q91.13487 337.94327 89.93058 337.88803Q88.72629 337.8107 87.67668 336.76108L87.62144 336.70584ZM88.49427 336.03186Q89.23453 336.77213 90.03002 336.8826Q90.83656 336.98206 91.41109 336.40753Q91.99666 335.82196 91.88618 335.02646Q91.76464 334.2199 90.936 333.39127Q90.206795 332.66208 89.40025 332.56262Q88.59371 332.4411 88.00813 333.02667Q87.444664 333.59015 87.5441 334.3967Q87.64353 335.18112 88.49427 336.03186ZM96.6702 327.85596Q97.69771 328.88345 97.85239 329.9883Q98.007065 331.07108 97.21157 331.86658Q96.36083 332.71732 95.28912 332.57367L95.76421 333.13715L95.06815 333.83322L88.70419 327.46924L89.466545 326.7069L91.84198 329.08234Q91.7315 328.04376 92.54909 327.2262Q93.36668 326.4086 94.44944 326.56326Q95.52115 326.7069 96.603905 327.78967L96.6702 327.85596ZM95.81946 328.5299Q95.03501 327.74545 94.30581 327.63498Q93.5766 327.5024 93.01312 328.0659Q92.25078 328.82822 92.61538 329.85574L94.55992 331.8003Q95.62058 332.15384 96.36083 331.41357Q96.91326 330.86115 96.791725 330.1209Q96.6702 329.38065 95.81946 328.5299ZM95.488 322.27643L96.570755 323.3592L97.3994 322.53055L97.99602 323.12717L97.16738 323.9558L99.94056 326.729Q100.216774 327.00522 100.45985 327.0273Q100.70291 327.0494 100.96808 326.78424Q101.10066 326.65167 101.28848 326.37546L101.9072 326.99417Q101.69728 327.38086 101.41002 327.66812Q100.90179 328.17636 100.32726 328.13217Q99.74169 328.07693 99.16717 327.5024L96.39398 324.72922L95.576385 325.5468L94.97977 324.9502L95.797356 324.1326L94.7146 323.04984L95.488 322.27643ZM105.60847 323.2929Q105.40959 323.22662 105.022896 322.9283Q105.05604 324.0221 104.31579 324.76236Q103.65287 325.42526 102.84633 325.48053Q102.050835 325.52472 101.46526 324.93915Q100.7692 324.24307 100.912834 323.32605Q101.056465 322.40903 102.02874 321.43674L102.76899 320.6965L102.415436 320.34296Q102.01769 319.9452 101.5426 319.95624Q101.06751 319.9452 100.59243 320.4203Q100.18363 320.82907 100.11734 321.31522Q100.04 321.7903 100.33831 322.08862L99.56491 322.862Q99.222404 322.5195 99.145065 321.97812Q99.07877 321.4257 99.3108 320.84012Q99.53177 320.2435 100.01791 319.75735Q100.80235 318.97293 101.61994 318.92874Q102.448586 318.87347 103.14464 319.52536L105.21072 321.59143Q105.82943 322.21014 106.34871 322.42007L106.415 322.48636L105.60847 323.2929ZM103.75231 323.9779Q104.11691 323.6133 104.2495 323.10507Q104.38208 322.59683 104.2274 322.1549L103.31037 321.23788L102.713745 321.8345Q101.29954 323.24872 102.128174 324.07736Q102.48173 324.4309 102.934715 324.39777Q103.37666 324.35358 103.75231 323.9779ZM108.62471 320.27664L107.862366 321.039L103.376656 316.55328L104.13901 315.79095L108.62471 320.27664ZM102.12817 315.4374Q101.940346 315.24957 101.91824 315.0065Q101.907196 314.75238 102.12817 314.5314Q102.349144 314.31046 102.59221 314.33255Q102.84632 314.3436 103.03415 314.5314Q103.21093 314.7082 103.22198 314.9623Q103.233025 315.19434 103.012054 315.41528Q102.791084 315.63626 102.54801 315.63626Q102.30495 315.61417 102.12817 315.4374ZM110.74603 318.15533L109.98368 318.9177L103.61972 312.5537L104.38207 311.79138L110.74603 318.15533Z" fill-rule="nonzero"/><path fill="#757575" d="M116.18834 347.1688Q117.02803 348.22946 116.96174 349.3564Q116.8844 350.47232 115.90108 351.45563Q114.82937 352.52734 113.4262 352.40582Q112.01199 352.27322 110.71931 350.98056L110.14478 350.40604Q109.3051 349.56635 108.96259 348.62723Q108.62009 347.68808 108.83001 346.79315Q109.03993 345.89822 109.75809 345.18005Q110.71931 344.21884 111.83521 344.1857Q112.962166 344.1415 114.000725 344.9812L113.20523 345.7767Q112.376595 345.169 111.71368 345.1911Q111.050766 345.21323 110.421 345.843Q109.65865 346.60532 109.79123 347.5997Q109.92381 348.59406 110.96238 349.63263L111.54795 350.2182Q112.53127 351.20154 113.52564 351.3783Q114.508965 351.54404 115.249214 350.80377Q115.912125 350.14087 115.96737 349.489Q116.011566 348.82608 115.392845 347.9643L116.18834 347.1688ZM121.52479 344.77127Q121.613174 345.74353 120.74034 346.61636Q120.02219 347.33453 119.22669 347.29034Q118.43119 347.24615 117.6136 346.42856L114.696785 343.51175L115.45914 342.7494L118.35385 345.6441Q119.38137 346.67163 120.21001 345.843Q121.093895 344.9591 120.71824 344.0089L117.45892 340.7496L118.23232 339.9762L122.718025 344.4619L121.98882 345.1911L121.52479 344.77127ZM119.624435 336.41858L120.70719 337.50134L121.535835 336.6727L122.132454 337.26932L121.30382 338.09796L124.076996 340.87112Q124.35321 341.14734 124.59628 341.16943Q124.83935 341.19153 125.104515 340.9264Q125.2371 340.7938 125.42492 340.51758L126.04364 341.1363Q125.83372 341.523 125.546455 341.81027Q125.03822 342.31848 124.4637 342.2743Q123.87813 342.21906 123.303604 341.64453L120.53042 338.87134L119.71282 339.68893L119.1162 339.09232L119.93379 338.27472L118.851036 337.19196L119.624435 336.41858ZM122.452866 333.59015L123.53562 334.6729L124.36426 333.84427L124.960884 334.4409L124.13224 335.26953L126.905426 338.0427Q127.18164 338.3189 127.424706 338.34103Q127.66778 338.36313 127.93294 338.09796Q128.06552 337.96536 128.25334 337.68915L128.87207 338.30786Q128.66214 338.69458 128.37488 338.98184Q127.86665 339.49008 127.29212 339.44586Q126.70655 339.39062 126.13203 338.8161L123.35884 336.0429L122.54125 336.8605L121.94463 336.2639L122.76222 335.4463L121.67947 334.36356L122.452866 333.59015ZM130.63983 336.5401L129.87749 337.30246L123.51353 330.9385L124.27587 330.17615L130.63983 336.5401ZM133.87706 333.47964Q132.96002 334.3967 131.78888 334.3746Q130.61774 334.33038 129.61232 333.32498L129.47974 333.19238Q128.80577 332.51843 128.5406 331.74503Q128.2644 330.9606 128.43013 330.22034Q128.59586 329.45798 129.12619 328.92767Q129.99902 328.05484 131.05968 328.14322Q132.12035 328.2316 133.19205 329.3033L133.51245 329.62372L130.4741 332.66208Q131.15912 333.3029 131.93251 333.34708Q132.71696 333.38022 133.29149 332.8057Q133.68924 332.40796 133.79971 331.966Q133.92125 331.51303 133.86601 331.01584L134.69466 330.9164Q135.00401 332.35272 133.87706 333.47964ZM129.75595 329.55743Q129.29192 330.02145 129.31401 330.6844Q129.3361 331.3252 129.87749 331.99915L132.12035 329.7563L132.0651 329.70105Q131.44638 329.14862 130.83871 329.11548Q130.24208 329.0713 129.75595 329.55743ZM136.55081 330.62915L132.66171 326.74005L131.9546 327.44714L131.35799 326.85052L132.0651 326.14343L131.6121 325.69043Q130.8829 324.96124 130.87186 324.19888Q130.86081 323.41443 131.56792 322.70734Q131.83308 322.44217 132.16454 322.2433L132.7501 322.91727Q132.50703 323.07193 132.29712 323.28186Q131.92146 323.6575 131.93251 324.0884Q131.9546 324.50824 132.35236 324.90598L132.82744 325.38107L133.78867 324.41986L134.38528 325.01648L133.42407 325.9777L137.31316 329.8668L136.55081 330.62915ZM139.83223 327.34772L139.06987 328.11008L134.58417 323.62436L135.34651 322.862L139.83223 327.34772ZM133.33568 322.50845Q133.14786 322.32062 133.12576 322.07758Q133.1147 321.82346 133.33568 321.60248Q133.55666 321.3815 133.79971 321.4036Q134.05383 321.41464 134.24165 321.60248Q134.41844 321.77927 134.42949 322.03336Q134.44054 322.26538 134.21956 322.48636Q133.9986 322.70734 133.75552 322.70734Q133.51245 322.68524 133.33568 322.50845ZM142.53911 322.25433Q142.22975 321.94498 141.82095 322.0223Q141.41217 322.07758 140.70506 322.5416Q140.009 322.9946 139.48972 323.1603Q138.97043 323.32605 138.5727 323.25977Q138.17494 323.17136 137.84349 322.8399Q137.29106 322.28748 137.37944 321.44778Q137.45679 320.59705 138.18599 319.86786Q138.94833 319.1055 139.81012 319.0392Q140.6719 318.95084 141.27959 319.5585L140.51723 320.32083Q140.20787 320.01147 139.7107 320.06674Q139.2135 320.09988 138.81575 320.49762Q138.3959 320.91748 138.34067 321.34836Q138.28543 321.75714 138.5727 322.0444Q138.8489 322.32062 139.2135 322.2433Q139.57811 322.16595 140.28522 321.724Q140.98128 321.27103 141.5116 321.09424Q142.04193 320.91748 142.46178 321.00586Q142.89267 321.0832 143.24622 321.43674Q143.8539 322.0444 143.73236 322.89514Q143.62187 323.73483 142.85953 324.4972Q142.31815 325.03857 141.71048 325.2706Q141.1028 325.4805 140.52827 325.37003Q139.95375 325.25955 139.55602 324.8618L140.31836 324.09946Q140.72716 324.46405 141.24643 324.4088Q141.75467 324.34253 142.22975 323.86743Q142.66064 323.43652 142.74904 322.9946Q142.83743 322.55264 142.53911 322.25433ZM142.18556 317.1057Q142.07507 315.97876 142.89267 315.16116Q144.31793 313.7359 145.93102 315.3269L148.89203 318.2879L148.11864 319.0613L145.14658 316.08926Q144.67148 315.61417 144.21849 315.60312Q143.77655 315.58102 143.31252 316.04504Q142.93686 316.42072 142.84848 316.90683Q142.77113 317.38193 142.93686 317.85703L146.1299 321.05005L145.36754 321.8124L139.00359 315.44843L139.76593 314.6861L142.18556 317.1057Z" fill-rule="nonzero"/><path fill="#757575" d="M151.22969 354.22882L145.19719 348.19632L146.90971 346.4838Q147.69415 345.69934 148.64433 345.45627Q149.59451 345.1911 150.56679 345.50046Q151.53905 345.8098 152.37874 346.6495L152.7544 347.02518Q153.61618 347.88696 153.92554 348.85922Q154.24594 349.82043 153.96973 350.78168Q153.70457 351.73184 152.90907 352.54944L151.22969 354.22882ZM146.64455 348.05267L151.37332 352.78146L152.21301 351.94177Q153.13004 351.02475 153.0748 349.95303Q153.01956 348.85922 151.9589 347.79855L151.60535 347.445Q150.57784 346.4175 149.52821 346.34015Q148.4786 346.24072 147.57263 347.1246L146.64455 348.05267ZM159.09625 345.47836Q159.18465 346.45065 158.31181 347.3235Q157.59366 348.04163 156.79816 347.99744Q156.00267 347.95325 155.18507 347.13565L152.26825 344.21884L153.03061 343.45648L155.92532 346.3512Q156.95284 347.37872 157.78148 346.55008Q158.66536 345.6662 158.28972 344.71603L155.0304 341.4567L155.80379 340.68332L160.2895 345.169L159.5603 345.89822L159.09625 345.47836ZM157.95825 338.52884L158.47754 339.00394Q158.38914 337.94327 159.22884 337.10358Q160.16797 336.16446 161.22862 336.5401Q161.12918 335.99872 161.28387 335.4463Q161.4496 334.8828 161.93573 334.3967Q163.41623 332.91617 164.99619 334.45193L168.00139 337.45712L167.23903 338.21948L164.27803 335.25848Q163.80293 334.7834 163.34995 334.77234Q162.88591 334.75024 162.36662 335.26953Q161.93573 335.7004 161.90259 336.2418Q161.8805 336.77213 162.26718 337.2472L165.23924 340.21927L164.4769 340.98163L161.53798 338.0427Q160.56572 337.07043 159.60449 338.03165Q158.8532 338.78296 159.21779 339.69998L162.48816 342.97037L161.71477 343.74374L157.22905 339.25806L157.95825 338.52884ZM171.09497 329.9883Q172.11143 331.0048 172.27718 332.09857Q172.4429 333.19238 171.63635 333.99893Q170.81876 334.81653 169.83543 334.7613L171.98991 336.91574L171.22755 337.6781L165.01828 331.4688L165.71434 330.77277L166.24466 331.2368Q166.14523 330.1872 166.97386 329.35855Q167.78041 328.552 168.85213 328.69565Q169.93488 328.82822 171.01764 329.91098L171.09497 329.9883ZM170.24423 330.66226Q169.48189 329.89993 168.71954 329.80048Q167.95718 329.67896 167.3937 330.24243Q166.69765 330.93848 166.96281 331.88867L169.10623 334.03207Q170.06746 334.3083 170.77457 333.6012Q171.327 333.04877 171.2165 332.29745Q171.10602 331.52405 170.24423 330.66226ZM175.28238 330.17615L174.52002 330.93848L168.15607 324.57452L168.91841 323.81216L175.28238 330.17615ZM177.40369 328.0548L176.64134 328.81717L172.15564 324.33145L172.91798 323.56912L177.40369 328.0548ZM170.90715 323.21555Q170.71933 323.02774 170.69722 322.78467Q170.68617 322.53055 170.90715 322.30957Q171.12811 322.0886 171.37119 322.11072Q171.6253 322.12177 171.81313 322.30957Q171.98991 322.48636 172.00096 322.74048Q172.01201 322.9725 171.79103 323.19345Q171.57007 323.41443 171.327 323.41443Q171.08392 323.39233 170.90715 323.21555ZM174.92882 321.5583L175.51439 322.09964Q175.39285 320.93954 176.2215 320.11093Q177.64676 318.68567 179.25984 320.27664L182.22086 323.23764L181.44746 324.01105L178.4754 321.039Q178.00032 320.5639 177.54732 320.55286Q177.10538 320.53076 176.64134 320.9948Q176.26569 321.37045 176.1773 321.8566Q176.09996 322.33167 176.26569 322.80676L179.45872 325.9998L178.69637 326.76215L174.21066 322.27643L174.92882 321.5583ZM181.1823 319.7242Q180.13269 318.6746 180.0001 317.56976Q179.86752 316.4649 180.66301 315.6694Q181.4806 314.8518 182.51917 314.96228L182.05513 314.43198L182.76224 313.72485L187.13747 318.10007Q188.0103 318.97293 187.9882 319.98938Q187.97714 321.0169 187.11536 321.8787Q186.62923 322.3648 185.95526 322.61893Q185.28131 322.87305 184.68468 322.76257L184.6184 321.9008Q185.7122 322.0223 186.43036 321.30417Q186.98277 320.75174 186.97173 320.12198Q186.98277 319.4922 186.40825 318.91766L186.02156 318.53098Q186.09889 319.53638 185.3034 320.33188Q184.51895 321.11633 183.40305 320.97272Q182.27611 320.81802 181.1823 319.7242ZM182.04408 319.0392Q182.79538 319.7905 183.54668 319.9231Q184.28694 320.04462 184.85042 319.48114Q185.56857 318.763 185.24815 317.75757L183.20418 315.7136Q182.20981 315.42633 181.5027 316.13345Q180.95027 316.68588 181.06076 317.43716Q181.1823 318.17743 182.04408 319.0392Z" fill-rule="nonzero"/><path fill="#757575" d="M195.08777 343.08084L192.46927 345.69934L194.60164 347.83173L197.63998 344.79337L198.29185 345.44522L194.45801 349.27908L188.4255 343.24658L192.2262 339.44586L192.87807 340.09775L189.87286 343.10294L191.8174 345.0475L194.43591 342.429L195.08777 343.08084ZM195.52971 339.23596L196.049 339.71103Q195.9606 338.6504 196.8003 337.8107Q197.73943 336.87155 198.80008 337.24722Q198.70065 336.70584 198.85533 336.1534Q199.02106 335.58994 199.50719 335.1038Q200.9877 333.6233 202.56764 335.15903L205.57285 338.16425L204.81049 338.9266L201.84949 335.96558Q201.37439 335.49048 200.9214 335.47943Q200.45737 335.45734 199.93808 335.97662Q199.50719 336.40753 199.47404 336.9489Q199.45195 337.47922 199.83865 337.9543L202.8107 340.9264L202.04836 341.68872L199.10945 338.74982Q198.13718 337.77756 197.17595 338.73877Q196.42465 339.49005 196.78925 340.4071L200.05962 343.67746L199.28622 344.45087L194.8005 339.96515L195.52971 339.23596ZM208.66643 330.69543Q209.6829 331.71188 209.84863 332.8057Q210.01436 333.8995 209.20781 334.70605Q208.39023 335.52365 207.4069 335.46838L209.56137 337.62286L208.79901 338.38522L202.58974 332.17593L203.2858 331.47986L203.81612 331.9439Q203.71669 330.8943 204.54533 330.06567Q205.35187 329.25912 206.42358 329.40274Q207.50633 329.53534 208.5891 330.61807L208.66643 330.69543ZM207.81569 331.3694Q207.05334 330.60703 206.291 330.5076Q205.52864 330.38608 204.96518 330.94955Q204.26912 331.6456 204.53429 332.59576L206.6777 334.7392Q207.63892 335.0154 208.34602 334.3083Q208.89845 333.75586 208.78796 333.00458Q208.67749 332.23117 207.81569 331.3694ZM213.96974 329.94412Q213.0527 330.86115 211.88156 330.83905Q210.71042 330.79486 209.705 329.78946L209.57242 329.65686Q208.89845 328.9829 208.63329 328.2095Q208.35707 327.42505 208.5228 326.6848Q208.68854 325.92245 209.21886 325.39212Q210.09169 324.5193 211.15236 324.60767Q212.21301 324.69608 213.28473 325.76776L213.60513 326.0882L210.56679 329.12653Q211.2518 329.76733 212.02519 329.81155Q212.80963 329.8447 213.38416 329.27017Q213.7819 328.8724 213.8924 328.43048Q214.01393 327.97748 213.95868 327.4803L214.78732 327.38086Q215.09668 328.81717 213.96974 329.94412ZM209.84863 326.02188Q209.38458 326.48593 209.4067 327.14883Q209.42879 327.78967 209.97017 328.46362L212.21301 326.22076L212.15778 326.16553Q211.53906 325.6131 210.93138 325.57996Q210.33476 325.53577 209.84863 326.02188ZM214.63264 321.50305Q214.43378 321.6577 214.2349 321.8566Q213.47255 322.61893 213.8482 323.52493L217.03018 326.7069L216.26784 327.46924L211.78212 322.98355L212.52237 322.2433L213.0527 322.75153Q212.83174 321.77927 213.52779 321.0832Q213.74876 320.8622 213.92554 320.79593L214.63264 321.50305ZM216.59929 322.5637Q215.94742 321.91183 215.6712 321.12738Q215.40605 320.33188 215.59387 319.59164Q215.77065 318.84033 216.35622 318.25476Q217.27325 317.33774 218.46649 317.40402Q219.67078 317.45926 220.73145 318.51993L220.78668 318.57516Q221.43855 319.22705 221.70372 320.00043Q221.96889 320.77383 221.80315 321.5362Q221.62637 322.28748 221.0187 322.89514Q220.11273 323.80115 218.90843 323.74588Q217.70415 323.66855 216.65453 322.61893L216.59929 322.5637ZM217.47212 321.88974Q218.21237 322.62997 219.00787 322.74048Q219.8144 322.8399 220.38893 322.26538Q220.97452 321.6798 220.86403 320.8843Q220.7425 320.0778 219.91385 319.24915Q219.18465 318.51993 218.3781 318.4205Q217.57156 318.29895 216.986 318.88452Q216.42252 319.448 216.52194 320.25455Q216.62138 321.039 217.47212 321.88974ZM222.41083 313.72485Q222.21194 313.87955 222.01308 314.07843Q221.25073 314.84076 221.62637 315.74673L224.80835 318.92874L224.046 319.69107L219.5603 315.20535L220.30055 314.46512L220.83089 314.97336Q220.60991 314.00107 221.30597 313.30502Q221.52693 313.08405 221.70372 313.01776L222.41083 313.72485Z" fill-rule="nonzero"/><path fill="#757575" d="M242.60292 334.08734L240.06175 336.6285L242.72446 339.2912L241.92896 340.0867L235.89645 334.0542L239.6419 330.30875L240.29378 330.9606L237.34381 333.91055L239.4099 335.97662L241.95107 333.43546L242.60292 334.08734ZM247.59686 334.4188L246.83452 335.18115L242.3488 330.69543L243.11116 329.93307L247.59686 334.4188ZM241.10033 329.57953Q240.91249 329.3917 240.8904 329.14862Q240.87935 328.89453 241.10033 328.67355Q241.32129 328.45258 241.56436 328.47467Q241.81848 328.48572 242.0063 328.67355Q242.18307 328.8503 242.19412 329.10443Q242.20517 329.33646 241.9842 329.55743Q241.76323 329.7784 241.52017 329.7784Q241.2771 329.75632 241.10033 329.57953ZM247.25436 327.1599Q247.05548 327.31458 246.85661 327.51346Q246.09427 328.2758 246.46991 329.1818L249.6519 332.36377L248.88954 333.1261L244.40384 328.6404L245.14409 327.90015L245.67442 328.4084Q245.45345 327.4361 246.1495 326.74005Q246.37048 326.51907 246.54726 326.4528L247.25436 327.1599ZM253.66252 328.5299Q252.74548 329.44696 251.57434 329.42484Q250.4032 329.38065 249.39778 328.37524L249.2652 328.24265Q248.59123 327.5687 248.32607 326.7953Q248.04985 326.01083 248.21558 325.2706Q248.38132 324.50824 248.91164 323.9779Q249.78447 323.10507 250.84514 323.19348Q251.90579 323.28186 252.97751 324.35358L253.29791 324.67398L250.25957 327.7123Q250.94458 328.35315 251.71797 328.39734Q252.50241 328.43048 253.07693 327.85596Q253.47469 327.45822 253.58517 327.01627Q253.70671 326.56326 253.65147 326.0661L254.4801 325.96664Q254.78946 327.40295 253.66252 328.5299ZM249.54141 324.6077Q249.07736 325.07172 249.09947 325.73465Q249.12157 326.37546 249.66295 327.0494L251.90579 324.80655L251.85056 324.7513Q251.23184 324.19888 250.62416 324.16574Q250.02754 324.12155 249.54141 324.6077ZM256.33627 325.67938L252.44717 321.7903L251.74007 322.4974L251.14345 321.9008L251.85056 321.1937L251.39757 320.7407Q250.66837 320.01147 250.65732 319.24915Q250.64626 318.4647 251.35336 317.7576Q251.61853 317.49243 251.95 317.29355L252.53557 317.9675Q252.2925 318.1222 252.08258 318.33212Q251.70692 318.70776 251.71797 319.13864Q251.74007 319.5585 252.13782 319.95624L252.6129 320.43134L253.57413 319.47012L254.17075 320.06674L253.20952 321.02795L257.0986 324.91705L256.33627 325.67938ZM259.61768 322.39798L258.85532 323.16034L252.49136 316.79636L253.25372 316.03403L259.61768 322.39798ZM261.24182 318.51993L258.93268 314.11157L259.75027 313.29398L263.1311 320.27664Q263.82718 321.8124 262.9212 322.71838L262.75546 322.862L262.424 323.08298L261.8053 322.46426L262.01523 322.27643Q262.41296 321.8787 262.4682 321.5141Q262.5345 321.13843 262.25827 320.57495L261.95996 319.9452L255.92746 317.11676L256.76715 316.27707L261.24182 318.51993Z" fill-rule="nonzero"/><path fill="#757575" d="M286.70407 331.99918Q286.83664 332.75046 286.5052 333.52386Q286.17374 334.29727 285.44455 335.02646Q284.71533 335.75568 283.7983 335.9877Q282.87024 336.20865 281.92004 335.8772Q280.96988 335.54575 280.11914 334.7171L279.59985 334.1978Q278.22983 332.82782 278.1083 331.44675Q277.99783 330.05463 279.14688 328.90558Q280.09705 327.95538 281.1577 327.867Q282.21835 327.77863 283.23483 328.5299L282.43933 329.3254Q281.01407 328.3642 279.82083 329.55743Q279.01428 330.36398 279.16898 331.33624Q279.3126 332.2975 280.37326 333.38022L280.8594 333.86636Q281.87585 334.88284 282.94757 335.02646Q284.00824 335.15906 284.8037 334.36356Q285.24567 333.9216 285.4777 333.49072Q285.72076 333.04877 285.69867 332.58475L284.35074 331.23682L282.95862 332.62894L282.30676 331.97708L284.49435 329.78946L286.70407 331.99918ZM289.41098 330.88327L288.64862 331.6456L284.1629 327.1599L284.92526 326.39755L289.41098 330.88327ZM282.91443 326.044Q282.7266 325.85617 282.7045 325.6131Q282.69345 325.35898 282.91443 325.13803Q283.1354 324.91705 283.37845 324.93915Q283.63257 324.9502 283.8204 325.13803Q283.9972 325.3148 284.00824 325.5689Q284.0193 325.80093 283.7983 326.0219Q283.57733 326.24286 283.33426 326.24286Q283.0912 326.22076 282.91443 326.044ZM293.4658 326.82846Q293.2669 326.76215 292.88022 326.46384Q292.91336 327.55765 292.1731 328.2979Q291.5102 328.96082 290.70364 329.01605Q289.90814 329.06024 289.32257 328.47467Q288.62653 327.77863 288.77014 326.8616Q288.9138 325.94455 289.88605 324.9723L290.6263 324.23203L290.27277 323.87848Q289.875 323.48074 289.3999 323.4918Q288.92484 323.48074 288.44974 323.9558Q288.04095 324.36462 287.97464 324.85077Q287.8973 325.32584 288.19562 325.62415L287.42224 326.39755Q287.0797 326.05505 287.00238 325.51367Q286.9361 324.96124 287.16812 324.37567Q287.38907 323.77905 287.8752 323.2929Q288.65967 322.50845 289.47726 322.46426Q290.3059 322.40903 291.00195 323.06088L293.06802 325.12698Q293.68674 325.7457 294.20602 325.9556L294.27234 326.0219L293.4658 326.82846ZM291.60962 327.51346Q291.9742 327.14886 292.1068 326.64062Q292.23938 326.1324 292.08472 325.69046L291.1677 324.7734L290.57108 325.37003Q289.15686 326.78424 289.9855 327.61288Q290.33905 327.96643 290.79202 327.9333Q291.23398 327.8891 291.60962 327.51346ZM291.88583 319.43698L292.4714 319.97836Q292.34988 318.81824 293.17853 317.98962Q294.6038 316.56436 296.21686 318.15533L299.1779 321.11636L298.40448 321.88974L295.43243 318.9177Q294.95734 318.4426 294.50433 318.43155Q294.0624 318.40945 293.59836 318.8735Q293.22272 319.24915 293.13434 319.7353Q293.05698 320.21036 293.22272 320.68546L296.41574 323.87848L295.65338 324.64084L291.1677 320.15512L291.88583 319.43698ZM296.07324 313.08405L297.156 314.1668L297.98465 313.33817L298.58127 313.93478L297.75262 314.76343L300.5258 317.53662Q300.802 317.81284 301.04507 317.83493Q301.28815 317.85703 301.5533 317.59186Q301.68588 317.4593 301.87372 317.18307L302.49243 317.8018Q302.28253 318.18848 301.99527 318.47574Q301.48703 318.98398 300.9125 318.9398Q300.32693 318.88455 299.7524 318.31003L296.97922 315.53683L296.16162 316.35443L295.565 315.7578L296.3826 314.94022L295.29984 313.85745L296.07324 313.08405Z" fill-rule="nonzero"/><path fill="#757575" d="M312.5199 346.0529L311.7244 346.8484L308.9402 344.06415L305.89078 347.11356L308.67502 349.8978L307.87952 350.69327L301.84702 344.66077L302.64252 343.8653L305.23892 346.4617L308.2883 343.4123L305.6919 340.8159L306.4874 340.0204L312.5199 346.0529ZM316.8951 341.67767Q316.69626 341.6114 316.30954 341.31308Q316.3427 342.40686 315.60245 343.14713Q314.93954 343.81003 314.133 343.8653Q313.3375 343.9095 312.75192 343.3239Q312.05588 342.62784 312.1995 341.71082Q312.34314 340.7938 313.3154 339.8215L314.05566 339.08127L313.7021 338.72772Q313.30435 338.32996 312.82925 338.341Q312.3542 338.32996 311.8791 338.80505Q311.4703 339.21384 311.404 339.69998Q311.32666 340.17508 311.62497 340.4734L310.85156 341.24677Q310.50906 340.90427 310.43173 340.36288Q310.36545 339.81046 310.59744 339.22488Q310.81842 338.62827 311.30457 338.14215Q312.08902 337.3577 312.90662 337.3135Q313.73523 337.25824 314.4313 337.91013L316.49738 339.9762Q317.1161 340.5949 317.63538 340.80484L317.70166 340.87112L316.8951 341.67767ZM315.03897 342.36267Q315.40356 341.99808 315.53616 341.48984Q315.66873 340.9816 315.51407 340.53967L314.59702 339.62265L314.0004 340.21927Q312.58618 341.63348 313.41483 342.46213Q313.7684 342.81567 314.22137 342.78253Q314.66333 342.73834 315.03897 342.36267ZM315.3152 334.2862L315.83447 334.7613Q315.74606 333.70062 316.58575 332.86093Q317.5249 331.9218 318.58554 332.29745Q318.4861 331.75607 318.6408 331.20364Q318.80652 330.64017 319.29266 330.15405Q320.77316 328.67352 322.35312 330.2093L325.3583 333.21448L324.59595 333.97684L321.63495 331.01584Q321.15985 330.54074 320.70688 330.5297Q320.24283 330.5076 319.72354 331.0269Q319.29266 331.45776 319.25952 331.99915Q319.23743 332.52948 319.6241 333.00458L322.59616 335.97662L321.83383 336.73898L318.8949 333.80005Q317.92264 332.8278 316.96143 333.789Q316.2101 334.5403 316.5747 335.45734L319.8451 338.72772L319.0717 339.5011L314.58597 335.0154L315.3152 334.2862ZM323.09335 326.50803L323.61264 326.9831Q323.52426 325.92245 324.36395 325.08276Q325.30307 324.14365 326.36374 324.5193Q326.26428 323.9779 326.41898 323.42548Q326.5847 322.862 327.07083 322.37585Q328.55133 320.89536 330.1313 322.43112L333.13647 325.4363L332.37415 326.19867L329.41312 323.23764Q328.93805 322.76257 328.48505 322.75153Q328.021 322.72943 327.50174 323.2487Q327.07083 323.6796 327.0377 324.22098Q327.0156 324.7513 327.40228 325.22638L330.37436 328.19846L329.612 328.9608L326.6731 326.02188Q325.7008 325.04962 324.7396 326.01083Q323.98828 326.76215 324.3529 327.67917L327.62326 330.94952L326.84985 331.72293L322.36417 327.2372L323.09335 326.50803ZM336.58362 322.16595Q335.6666 323.08298 334.49545 323.06088Q333.3243 323.0167 332.31888 322.01126L332.1863 321.8787Q331.51236 321.2047 331.2472 320.43134Q330.97098 319.64688 331.1367 318.90662Q331.30243 318.1443 331.83276 317.61395Q332.7056 316.74112 333.76627 316.8295Q334.8269 316.91788 335.89862 317.9896L336.21902 318.31L333.1807 321.34836Q333.8657 321.98917 334.6391 322.03336Q335.42352 322.0665 335.99805 321.49197Q336.3958 321.09424 336.5063 320.65228Q336.62784 320.1993 336.57257 319.70212L337.4012 319.6027Q337.71057 321.039 336.58362 322.16595ZM332.46252 318.2437Q331.99847 318.70776 332.02057 319.37067Q332.0427 320.01147 332.58405 320.68542L334.8269 318.4426L334.77167 318.38733Q334.15295 317.8349 333.5453 317.80176Q332.94867 317.75757 332.46252 318.2437ZM337.24655 313.72485Q337.04767 313.87955 336.8488 314.0784Q336.08646 314.84076 336.4621 315.74673L339.64407 318.9287L338.8817 319.69107L334.39603 315.20535L335.13626 314.46512L335.6666 314.97333Q335.44562 314.00107 336.1417 313.30502Q336.36267 313.08405 336.53943 313.01776L337.24655 313.72485Z" fill-rule="nonzero"/><path fill="#757575" d="M345.60565 351.24573L344.81015 352.0412L338.77765 346.0087L339.57315 345.2132L345.60565 351.24573ZM342.98715 344.8928L343.57272 345.43417Q343.4512 344.27408 344.27982 343.44543Q345.70508 342.02017 347.31818 343.61118L350.27917 346.57217L349.5058 347.34558L346.53372 344.37354Q346.05865 343.89844 345.60565 343.8874Q345.16373 343.8653 344.69968 344.3293Q344.32404 344.705 344.23563 345.1911Q344.1583 345.6662 344.32404 346.1413L347.51706 349.33432L346.7547 350.09668L342.26898 345.61096L342.98715 344.8928ZM352.0801 344.77127L348.191 340.88217L347.48392 341.5893L346.8873 340.99268L347.5944 340.28555L347.1414 339.83258Q346.4122 339.10336 346.40115 338.341Q346.3901 337.55658 347.0972 336.84946Q347.36237 336.5843 347.69382 336.38544L348.2794 337.0594Q348.03635 337.21405 347.82642 337.42398Q347.45078 337.79965 347.46182 338.23053Q347.48392 338.65036 347.88165 339.04813L348.35675 339.52322L349.31796 338.56198L349.91458 339.1586L348.95337 340.11984L352.84244 344.0089L352.0801 344.77127ZM356.47742 340.55072Q355.5604 341.46774 354.38925 341.44565Q353.2181 341.40146 352.21268 340.39606L352.0801 340.26346Q351.40613 339.5895 351.14096 338.8161Q350.86475 338.03165 351.0305 337.2914Q351.19623 336.52905 351.72656 335.99872Q352.5994 335.1259 353.66003 335.21426Q354.7207 335.30267 355.79242 336.3744L356.11282 336.6948L353.07446 339.73312Q353.7595 340.37396 354.53287 340.41815Q355.31732 340.4513 355.89185 339.87677Q356.28958 339.479 356.4001 339.03708Q356.5216 338.58408 356.46637 338.0869L357.295 337.98746Q357.60437 339.42377 356.47742 340.55072ZM352.35632 336.62848Q351.89227 337.09253 351.91437 337.75543Q351.93646 338.39627 352.47784 339.07022L354.7207 336.82736L354.66547 336.77213Q354.04675 336.2197 353.43906 336.18655Q352.84244 336.14236 352.35632 336.62848ZM357.14032 332.10965Q356.94147 332.2643 356.74258 332.4632Q355.98022 333.22556 356.3559 334.13153L359.53787 337.3135L358.7755 338.07584L354.2898 333.59015L355.03006 332.84988L355.5604 333.35812Q355.33942 332.38586 356.0355 331.6898Q356.25644 331.4688 356.43323 331.40253L357.14032 332.10965ZM357.8364 330.04355L358.42197 330.58493Q358.30045 329.42484 359.12906 328.5962Q360.55432 327.17093 362.16742 328.76193L365.12842 331.72293L364.35504 332.49634L361.38297 329.5243Q360.9079 329.0492 360.4549 329.03815Q360.01297 329.01605 359.54892 329.48007Q359.17328 329.85574 359.08487 330.34186Q359.00754 330.81696 359.17328 331.29205L362.3663 334.48508L361.60394 335.24744L357.11823 330.76172L357.8364 330.04355ZM369.31583 327.53555Q369.11694 327.46924 368.73026 327.17093Q368.7634 328.26474 368.02316 329.005Q367.36023 329.6679 366.55368 329.72314Q365.7582 329.76733 365.17264 329.18176Q364.47656 328.48572 364.6202 327.5687Q364.76382 326.65167 365.7361 325.67938L366.47635 324.93915L366.1228 324.58557Q365.72504 324.18784 365.24997 324.19888Q364.77487 324.18784 364.2998 324.66293Q363.891 325.07172 363.8247 325.55786Q363.74738 326.03293 364.0457 326.33124L363.27228 327.10464Q362.92978 326.76215 362.85242 326.22076Q362.78613 325.66833 363.01816 325.08276Q363.23914 324.48615 363.72525 324.0Q364.5097 323.21555 365.3273 323.17136Q366.15594 323.11612 366.852 323.76797L368.9181 325.83408Q369.5368 326.4528 370.0561 326.66272L370.12238 326.729L369.31583 327.53555ZM367.4597 328.22055Q367.82428 327.85596 367.95685 327.34772Q368.08945 326.83948 367.93475 326.39755L367.01773 325.4805L366.4211 326.07712Q365.0069 327.49133 365.83554 328.31998Q366.1891 328.67355 366.6421 328.64038Q367.084 328.5962 367.4597 328.22055ZM372.3321 324.5193L371.56973 325.28165L365.20578 318.91766L365.9681 318.15533L372.3321 324.5193ZM374.4534 322.39798L373.69104 323.1603L369.20535 318.67462L369.96768 317.91226L374.4534 322.39798ZM367.95685 317.55872Q367.76904 317.37088 367.74695 317.1278Q367.7359 316.8737 367.95685 316.65274Q368.17783 316.43176 368.4209 316.45386Q368.67502 316.4649 368.86282 316.65274Q369.0396 316.8295 369.05066 317.08362Q369.0617 317.31564 368.84073 317.53662Q368.61978 317.75757 368.3767 317.75757Q368.13364 317.73547 367.95685 317.55872ZM377.1603 317.3046Q376.85092 316.99524 376.44214 317.07257Q376.03336 317.1278 375.32623 317.59186Q374.6302 318.04483 374.1109 318.21057Q373.5916 318.3763 373.19388 318.31Q372.7961 318.22162 372.46466 317.89017Q371.91223 317.33774 372.0006 316.49805Q372.07797 315.6473 372.80716 314.9181Q373.56952 314.15576 374.4313 314.08948Q375.2931 314.00107 375.90076 314.60873L375.1384 315.3711Q374.82904 315.06174 374.33188 315.11697Q373.8347 315.15012 373.43692 315.54788Q373.0171 315.9677 372.96185 316.39862Q372.90662 316.8074 373.19388 317.09467Q373.4701 317.37088 373.8347 317.29355Q374.19928 317.2162 374.9064 316.77426Q375.60245 316.32126 376.13278 316.1445Q376.66312 315.9677 377.08295 316.0561Q377.51385 316.13345 377.8674 316.487Q378.47507 317.09467 378.35355 317.9454Q378.24304 318.7851 377.4807 319.54745Q376.93933 320.08884 376.33167 320.32083Q375.72397 320.53076 375.14944 320.4203Q374.57492 320.30978 374.1772 319.91205L374.93954 319.1497Q375.34833 319.5143 375.8676 319.45905Q376.37585 319.39276 376.85092 318.91766Q377.28183 318.4868 377.3702 318.04483Q377.45862 317.6029 377.1603 317.3046Z" fill-rule="nonzero"/><path fill="#757575" d="M392.95508 330.10986L393.76163 329.3033L398.0374 333.5791Q398.8992 334.4409 398.86606 335.4684Q398.8329 336.47382 397.9711 337.3356Q397.07617 338.23053 396.1039 338.27472Q395.1427 338.30786 394.31406 337.47925L395.10953 336.68375Q395.6288 337.20303 396.20334 337.22513Q396.77786 337.22513 397.31924 336.68375Q397.81644 336.18655 397.8054 335.5789Q397.79434 334.94913 397.2419 334.3967L392.95508 330.10986ZM403.24127 332.06546Q402.32425 332.98248 401.1531 332.9604Q399.98193 332.9162 398.97653 331.91077L398.84396 331.7782Q398.16998 331.10422 397.90482 330.33084Q397.6286 329.5464 397.79434 328.80612Q397.96005 328.0438 398.4904 327.51346Q399.36322 326.64062 400.4239 326.729Q401.48456 326.81738 402.55624 327.8891L402.87668 328.2095L399.83832 331.24786Q400.52332 331.88867 401.29672 331.93286Q402.08118 331.966 402.6557 331.39148Q403.05344 330.99374 403.16394 330.5518Q403.28546 330.09882 403.23022 329.60162L404.05887 329.5022Q404.36823 330.9385 403.24127 332.06546ZM399.12015 328.14322Q398.65613 328.60727 398.67822 329.27017Q398.70032 329.91098 399.2417 330.58493L401.48456 328.3421L401.42932 328.28683Q400.81058 327.7344 400.2029 327.70126Q399.6063 327.65707 399.12015 328.14322ZM408.44513 324.56348L405.88187 320.27664L406.64423 319.5143L409.8262 325.30374L409.2075 325.92245L404.71072 323.6133L407.053 328.07693L406.4343 328.69565L400.64487 325.51367L401.4072 324.7513L405.64984 327.2262L403.3407 322.8178L403.94836 322.21014L408.44513 324.56348ZM413.84787 321.45883Q412.93085 322.3759 411.7597 322.3538Q410.58856 322.30957 409.58313 321.30417L409.45056 321.17157Q408.77658 320.49762 408.5114 319.7242Q408.2352 318.9398 408.40094 318.19952Q408.56668 317.43716 409.097 316.90686Q409.96982 316.034 411.0305 316.1224Q412.09116 316.2108 413.16287 317.2825L413.48328 317.6029L410.44492 320.64127Q411.12994 321.28207 411.90332 321.32626Q412.68777 321.3594 413.2623 320.78488Q413.66003 320.38715 413.77054 319.9452Q413.89206 319.49222 413.83682 318.99503L414.66547 318.8956Q414.97482 320.3319 413.84787 321.45883ZM409.72678 317.53662Q409.26273 318.00064 409.28482 318.66357Q409.30692 319.30438 409.8483 319.97833L412.09116 317.73547L412.03592 317.68024Q411.4172 317.1278 410.8095 317.09467Q410.2129 317.05048 409.72678 317.53662ZM416.9746 318.15533L416.21225 318.9177L409.8483 312.5537L410.61066 311.79138L416.9746 318.15533Z" fill-rule="nonzero"/><path fill="#757575" d="M428.5157 339.28015L428.5378 340.78275L430.5818 342.82672L429.7863 343.62222L423.75378 337.58972L424.5493 336.79422L427.53238 339.77734L427.23407 334.10944L428.19528 333.14822L428.48254 338.18634L434.41562 338.9929L433.46545 339.94305L428.5157 339.28015ZM433.69748 332.10965Q433.4986 332.2643 433.2997 332.4632Q432.53738 333.22556 432.91302 334.13153L436.095 337.3135L435.33264 338.07587L430.84695 333.59015L431.5872 332.8499L432.11752 333.35812Q431.89655 332.38586 432.59262 331.6898Q432.81357 331.46884 432.99036 331.40253L433.69748 332.10965ZM440.92322 332.4853Q440.72433 332.419 440.33765 332.1207Q440.3708 333.2145 439.63052 333.95474Q438.96762 334.61768 438.16107 334.6729Q437.36557 334.7171 436.78 334.13153Q436.08395 333.4355 436.22757 332.51843Q436.37122 331.6014 437.34348 330.62915L438.08374 329.8889L437.7302 329.53534Q437.33243 329.1376 436.85736 329.14865Q436.38226 329.1376 435.90717 329.61267Q435.49838 330.02148 435.4321 330.5076Q435.35474 330.9827 435.65305 331.281L434.87967 332.0544Q434.53717 331.7119 434.4598 331.17053Q434.39352 330.6181 434.62555 330.03253Q434.84653 329.4359 435.33264 328.94977Q436.1171 328.1653 436.9347 328.12112Q437.76334 328.0659 438.45938 328.71774L440.52545 330.7838Q441.1442 331.40253 441.66345 331.61246L441.72977 331.67874L440.92322 332.4853ZM439.06705 333.17032Q439.43167 332.8057 439.56424 332.2975Q439.69684 331.78925 439.54214 331.3473L438.62512 330.43027L438.0285 331.0269Q436.6143 332.4411 437.44293 333.26974Q437.79648 333.6233 438.24948 333.59015Q438.6914 333.54596 439.06705 333.17032ZM442.2822 326.97208L442.29324 327.95538L443.87317 329.53534L443.11084 330.2977L436.74686 323.93372L437.50922 323.1714L441.3541 327.01627L441.27676 326.12134L441.19943 323.23767L442.1275 322.3096L442.2601 325.9335L446.82315 326.5854L445.91714 327.49136L442.2822 326.97208ZM449.298 324.2873Q448.38098 325.2043 447.20984 325.18222Q446.0387 325.13803 445.03326 324.1326L444.9007 324.00003Q444.2267 323.32605 443.96158 322.55264Q443.68536 321.76822 443.85107 321.02795Q444.0168 320.2656 444.54715 319.7353Q445.41998 318.86246 446.48062 318.95084Q447.5413 319.0392 448.613 320.11093L448.9334 320.43134L445.89505 323.4697Q446.58008 324.1105 447.35345 324.1547Q448.1379 324.18784 448.71243 323.6133Q449.1102 323.21558 449.22067 322.77362Q449.3422 322.32065 449.28696 321.82346L450.1156 321.72403Q450.42496 323.16034 449.298 324.2873ZM445.1769 320.36505Q444.71286 320.82907 444.73495 321.492Q444.75705 322.1328 445.29843 322.80676L447.5413 320.56393L447.48605 320.50867Q446.86734 319.95624 446.25967 319.9231Q445.66302 319.8789 445.1769 320.36505ZM447.82855 316.60855L448.41412 317.14993Q448.2926 315.98984 449.12125 315.1612Q450.5465 313.73593 452.15958 315.3269L455.1206 318.28793L454.3472 319.0613L451.37512 316.08926Q450.90005 315.61417 450.44705 315.60312Q450.00513 315.58102 449.54108 316.04507Q449.16544 316.42072 449.07703 316.90686Q448.9997 317.38193 449.16544 317.85703L452.35846 321.05005L451.5961 321.8124L447.1104 317.3267L447.82855 316.60855Z" fill-rule="nonzero"/><path fill="#757575" d="M456.90585 353.4775L459.76743 350.61594L460.41928 351.2678L456.75116 354.9359L450.71866 348.9034L451.5252 348.09686L456.90585 353.4775ZM463.20352 347.5997Q463.2919 348.57196 462.41907 349.4448Q461.7009 350.16296 460.90543 350.11874Q460.10992 350.07455 459.29233 349.25696L456.37552 346.34015L457.13785 345.57782L460.0326 348.47253Q461.0601 349.50003 461.88873 348.6714Q462.7726 347.7875 462.39697 346.83734L459.13763 343.57803L459.91104 342.80463L464.39676 347.29034L463.66754 348.01953L463.20352 347.5997ZM462.06552 340.65015L462.58478 341.12524Q462.4964 340.06458 463.3361 339.22488Q464.2752 338.28577 465.33588 338.6614Q465.23645 338.12003 465.3911 337.5676Q465.55685 337.00415 466.043 336.518Q467.5235 335.0375 469.10342 336.57324L472.10864 339.57846L471.34628 340.3408L468.38528 337.3798Q467.9102 336.9047 467.4572 336.89365Q466.99316 336.87155 466.47388 337.39084Q466.043 337.82172 466.00983 338.3631Q465.98773 338.89343 466.37445 339.36853L469.3465 342.34058L468.58414 343.10294L465.64523 340.16403Q464.67297 339.19174 463.71173 340.15298Q462.96045 340.90427 463.32504 341.8213L466.59543 345.09167L465.82202 345.86508L461.3363 341.37936L462.06552 340.65015ZM474.43988 337.2472L473.67752 338.00955L469.19183 333.52383L469.95416 332.7615L474.43988 337.2472ZM467.94333 332.40793Q467.75552 332.22012 467.73343 331.97705Q467.72235 331.72293 467.94333 331.50195Q468.1643 331.28098 468.40738 331.3031Q468.6615 331.31415 468.8493 331.50195Q469.0261 331.67874 469.03714 331.93286Q469.0482 332.1649 468.8272 332.38583Q468.60626 332.6068 468.3632 332.6068Q468.12012 332.58472 467.94333 332.40793ZM471.965 330.75067L472.55057 331.29205Q472.42905 330.13193 473.2577 329.3033Q474.68295 327.87805 476.29602 329.46902L479.25705 332.43005L478.48364 333.20343L475.5116 330.23138Q475.0365 329.7563 474.5835 329.74524Q474.14157 329.72314 473.67752 330.1872Q473.30188 330.56284 473.2135 331.04898Q473.13614 331.52405 473.30188 331.99915L476.4949 335.19217L475.73257 335.95453L471.24686 331.4688L471.965 330.75067ZM478.18533 328.92764Q477.53348 328.2758 477.25726 327.49133Q476.9921 326.69583 477.17993 325.9556Q477.3567 325.20428 477.94226 324.6187Q478.85928 323.7017 480.05255 323.76797Q481.25684 323.8232 482.3175 324.88388L482.37274 324.93912Q483.0246 325.591 483.28976 326.36438Q483.55493 327.1378 483.3892 327.90015Q483.21243 328.65143 482.60477 329.2591Q481.69876 330.1651 480.49448 330.10983Q479.2902 330.0325 478.24057 328.98288L478.18533 328.92764ZM479.05817 328.2537Q479.79843 328.99393 480.59393 329.10443Q481.40045 329.20386 481.97498 328.62933Q482.56055 328.04376 482.45007 327.24826Q482.32855 326.44174 481.4999 325.6131Q480.7707 324.88388 479.96414 324.78445Q479.1576 324.6629 478.57202 325.24847Q478.00854 325.81195 478.108 326.6185Q478.20743 327.40295 479.05817 328.2537ZM487.95224 322.85095Q488.04065 323.8232 487.16782 324.69604Q486.44965 325.4142 485.65414 325.37003Q484.85864 325.32584 484.04108 324.50824L481.12424 321.59143L481.8866 320.82907L484.7813 323.7238Q485.80884 324.7513 486.63748 323.92267Q487.52136 323.0388 487.1457 322.0886L483.88638 318.82928L484.6598 318.05588L489.14548 322.5416L488.4163 323.27078L487.95224 322.85095ZM491.996 317.3046Q491.68665 316.9952 491.27786 317.07257Q490.86905 317.1278 490.16196 317.59186Q489.4659 318.04483 488.94662 318.21057Q488.42734 318.37628 488.0296 318.31Q487.63184 318.22162 487.30038 317.89017Q486.74796 317.33774 486.83633 316.49805Q486.9137 315.6473 487.64288 314.9181Q488.40524 314.15576 489.26703 314.08945Q490.1288 314.00107 490.73648 314.60873L489.97412 315.3711Q489.66476 315.06174 489.1676 315.11697Q488.6704 315.15012 488.27264 315.54785Q487.8528 315.9677 487.79758 316.3986Q487.74234 316.8074 488.0296 317.09467Q488.30582 317.37088 488.6704 317.29355Q489.035 317.2162 489.74213 316.77426Q490.43817 316.32126 490.9685 316.1445Q491.49884 315.9677 491.91867 316.0561Q492.34958 316.13342 492.70312 316.487Q493.3108 317.09467 493.18927 317.9454Q493.07877 318.7851 492.31644 319.54742Q491.77505 320.0888 491.1674 320.32083Q490.5597 320.53076 489.98517 320.42026Q489.41064 320.30978 489.0129 319.91205L489.77527 319.1497Q490.18405 319.51428 490.70334 319.45905Q491.21158 319.39276 491.68665 318.91766Q492.11755 318.4868 492.20593 318.04483Q492.2943 317.6029 491.996 317.3046Z" fill-rule="nonzero"/><path fill="#757575" d="M504.874 333.02667L511.76828 335.96558L508.8183 329.08234L509.85687 328.04376L515.8894 334.07626L515.0939 334.87177L512.74054 332.51843L510.28778 329.91098L513.1825 336.78317L512.5748 337.39084L505.72473 334.49612L508.32114 336.93784L510.67447 339.2912L509.87897 340.08667L503.84647 334.05417L504.874 333.02667ZM517.6682 332.29745L516.9058 333.0598L512.42017 328.5741L513.1825 327.81177L517.6682 332.29745ZM511.17166 327.4582Q510.98383 327.2704 510.96173 327.0273Q510.95068 326.7732 511.17166 326.55222Q511.3926 326.33124 511.63568 326.35333Q511.8898 326.36438 512.07764 326.55222Q512.2544 326.729 512.26544 326.98312Q512.2765 327.21512 512.05554 327.4361Q511.83456 327.65707 511.5915 327.65707Q511.34842 327.63498 511.17166 327.4582ZM515.1933 325.8009L515.7126 326.276Q515.6242 325.21533 516.4639 324.37564Q517.403 323.43652 518.4637 323.8122Q518.36426 323.2708 518.5189 322.71838Q518.68463 322.1549 519.1708 321.66876Q520.6513 320.18826 522.23126 321.724L525.23645 324.72922L524.4741 325.49155L521.51306 322.53055Q521.038 322.05545 520.585 322.0444Q520.121 322.0223 519.6017 322.5416Q519.1708 322.9725 519.13763 323.51385Q519.11554 324.0442 519.50226 324.5193L522.4743 327.49133L521.712 328.2537L518.7731 325.3148Q517.8008 324.3425 516.83954 325.30374Q516.08826 326.05502 516.4529 326.97208L519.7232 330.24243L518.9498 331.01584L514.4641 326.53012L515.1933 325.8009ZM527.5677 322.39798L526.80536 323.1603L522.31964 318.67462L523.082 317.91226L527.5677 322.39798ZM521.07117 317.55872Q520.8833 317.37088 520.8612 317.1278Q520.85016 316.8737 521.07117 316.6527Q521.2921 316.43176 521.53516 316.45386Q521.7893 316.4649 521.9771 316.6527Q522.15393 316.8295 522.165 317.08362Q522.176 317.31564 521.955 317.53662Q521.7341 317.75757 521.49097 317.75757Q521.2479 317.73547 521.07117 317.55872ZM530.1088 318.77405Q530.51764 318.36523 530.5839 317.81284Q530.63916 317.24936 530.2967 316.84055L531.0259 316.11136Q531.3905 316.52014 531.4899 317.1278Q531.58936 317.71338 531.3905 318.3321Q531.20264 318.93976 530.73865 319.4038Q529.8216 320.32083 528.67255 320.25455Q527.5235 320.16617 526.4628 319.1055L526.33026 318.97293Q525.6784 318.32104 525.40216 317.5808Q525.137 316.8295 525.30273 316.11136Q525.46844 315.3711 526.08716 314.75238Q526.8385 314.00107 527.78864 313.95688Q528.73883 313.8906 529.50116 314.58664L528.772 315.31586Q528.2969 314.90704 527.72235 314.92914Q527.1478 314.95123 526.717 315.38214Q526.13135 315.9677 526.23083 316.70798Q526.33026 317.4482 527.12573 318.2437L527.26935 318.38736Q528.0428 319.16074 528.783 319.2602Q529.52325 319.35962 530.1088 318.77405Z" fill-rule="nonzero"/><path fill="#757575" d="M543.6055 344.6387L542.81006 345.43417L535.12024 343.8211L539.77167 348.47253L538.96515 349.27908L532.9326 343.24658L533.7392 342.44003L541.45105 344.07523L536.7775 339.40167L537.57306 338.60617L543.6055 344.6387ZM547.9808 340.26346Q547.78186 340.19717 547.3952 339.89886Q547.42834 340.99268 546.6881 341.7329Q546.02515 342.39584 545.2186 342.45108Q544.42316 342.49527 543.8376 341.9097Q543.1415 341.21365 543.28516 340.2966Q543.4288 339.37958 544.40106 338.40732L545.1413 337.66705L544.7877 337.3135Q544.38995 336.91577 543.9149 336.92682Q543.4398 336.91577 542.9647 337.39084Q542.5559 337.79965 542.4896 338.28577Q542.4123 338.76086 542.71063 339.05917L541.9372 339.83258Q541.5947 339.49008 541.51733 338.9487Q541.45105 338.39627 541.6831 337.8107Q541.90405 337.21408 542.3902 336.72794Q543.1746 335.94348 543.99225 335.8993Q544.82086 335.84406 545.5169 336.4959L547.583 338.56198Q548.2017 339.1807 548.721 339.39062L548.7873 339.4569L547.9808 340.26346ZM546.12463 340.9485Q546.4892 340.58386 546.62177 340.07565Q546.7544 339.5674 546.5997 339.12546L545.6827 338.20844L545.08606 338.80505Q543.6718 340.21927 544.5005 341.0479Q544.854 341.40146 545.307 341.36832Q545.74896 341.32413 546.12463 340.9485ZM552.4886 334.87177Q552.57697 335.84406 551.7041 336.7169Q550.98596 337.43503 550.1905 337.39084Q549.39496 337.34665 548.5774 336.52905L545.6606 333.61224L546.4229 332.84988L549.3176 335.7446Q550.34515 336.77213 551.17377 335.94348Q552.0577 335.0596 551.682 334.10944L548.4227 330.8501L549.1961 330.07672L553.6818 334.5624L552.9526 335.29163L552.4886 334.87177ZM550.5882 326.51907L551.67096 327.60184L552.49963 326.7732L553.09625 327.3698L552.2676 328.19846L555.0408 330.97165Q555.317 331.24786 555.56006 331.26996Q555.8031 331.29205 556.0683 331.0269Q556.20087 330.8943 556.3887 330.61807L557.00745 331.23682Q556.7975 331.6235 556.51025 331.91077Q556.002 332.419 555.4275 332.37482Q554.8419 332.31955 554.2674 331.74503L551.4942 328.97186L550.6766 329.78946L550.07996 329.1928L550.8976 328.37524L549.8148 327.29248L550.5882 326.51907ZM558.7752 329.46902L558.0128 330.23138L551.64886 323.86743L552.41125 323.10507L558.7752 329.46902ZM560.8965 327.34772L560.13416 328.11008L555.64844 323.62436L556.4108 322.862L560.8965 327.34772ZM554.39996 322.50845Q554.21216 322.32062 554.19006 322.07758Q554.179 321.82346 554.39996 321.60248Q554.6209 321.3815 554.864 321.4036Q555.1181 321.41464 555.30597 321.60248Q555.4827 321.77927 555.4938 322.03336Q555.5048 322.26538 555.2839 322.48636Q555.06287 322.70734 554.8198 322.70734Q554.5767 322.68524 554.39996 322.50845ZM564.5094 322.85095Q564.5978 323.82324 563.7249 324.69608Q563.0068 325.4142 562.2113 325.37003Q561.4158 325.32584 560.5982 324.50824L557.6814 321.59143L558.4437 320.82907L561.33844 323.7238Q562.36597 324.7513 563.1946 323.92267Q564.0785 323.0388 563.7028 322.08862L560.44354 318.82928L561.2169 318.0559L565.70264 322.5416L564.97345 323.2708L564.5094 322.85095ZM568.55316 317.3046Q568.2438 316.99524 567.835 317.07257Q567.4262 317.1278 566.7191 317.59186Q566.023 318.04483 565.5037 318.21057Q564.9845 318.3763 564.58673 318.31Q564.18896 318.22162 563.85754 317.89017Q563.3051 317.33774 563.3935 316.49805Q563.4708 315.6473 564.2 314.91812Q564.96234 314.15576 565.82416 314.08948Q566.686 314.00107 567.29364 314.60873L566.53125 315.3711Q566.2219 315.06174 565.72473 315.11697Q565.22754 315.15012 564.8298 315.54788Q564.41 315.9677 564.3547 316.39862Q564.29944 316.8074 564.58673 317.09467Q564.8629 317.37088 565.22754 317.29355Q565.59216 317.21622 566.29926 316.77426Q566.9953 316.32126 567.52563 316.1445Q568.05597 315.9677 568.4758 316.05612Q568.9067 316.13345 569.26025 316.487Q569.8679 317.09467 569.7464 317.9454Q569.6359 318.7851 568.87354 319.54745Q568.33215 320.08884 567.7245 320.32083Q567.1168 320.53076 566.5423 320.4203Q565.9678 320.30978 565.57007 319.91205L566.3324 319.1497Q566.7412 319.5143 567.2605 319.45905Q567.7687 319.39276 568.2438 318.9177Q568.6747 318.4868 568.76306 318.04483Q568.85144 317.6029 568.55316 317.3046Z" fill-rule="nonzero"/></svg>